<svg xmlns="http://www.w3.org/2000/svg" width="30.921" height="34.8" viewBox="0 0 30.921 34.8">
  <g id="Group_10" data-name="Group 10" transform="translate(-192.519 -194.4)">
    <path id="Path_30" data-name="Path 30" d="M213.6,218.8a2.874,2.874,0,0,0,2.2-.3,2.61,2.61,0,0,0,1-2,2.459,2.459,0,0,0,2-1,2.157,2.157,0,0,0,.3-2.2,2.343,2.343,0,0,0,1.2-3.7,2.3,2.3,0,0,0,0-3.8,2.435,2.435,0,0,0,.4-2.2,2.049,2.049,0,0,0-1.6-1.5,2.219,2.219,0,0,0-.3-2.2,2.61,2.61,0,0,0-2-1,2.334,2.334,0,0,0-1-2,2.19,2.19,0,0,0-2.2-.3,2.631,2.631,0,0,0-1.5-1.6,2.435,2.435,0,0,0-2.2.4,2.3,2.3,0,0,0-3.8,0,2.435,2.435,0,0,0-2.2-.4,2.212,2.212,0,0,0-1.5,1.6,2.874,2.874,0,0,0-2.2.3,2.61,2.61,0,0,0-1,2,2.334,2.334,0,0,0-2,1,2.19,2.19,0,0,0-.3,2.2,2.631,2.631,0,0,0-1.6,1.5,2.435,2.435,0,0,0,.4,2.2,2.3,2.3,0,0,0,0,3.8,2.435,2.435,0,0,0-.4,2.2,2.049,2.049,0,0,0,1.6,1.5,2.874,2.874,0,0,0,.3,2.2,2.61,2.61,0,0,0,2,1,2.334,2.334,0,0,0,1,2,2.19,2.19,0,0,0,2.2.3,2.631,2.631,0,0,0,1.5,1.6,2.491,2.491,0,0,0,2.2-.4,2.3,2.3,0,0,0,3.8,0,2.435,2.435,0,0,0,2.2.4A2.631,2.631,0,0,0,213.6,218.8Zm-3.4-.1a.55.55,0,0,0-.5-.3.43.43,0,0,0-.4.4,1.3,1.3,0,0,1-1.3,1,1.381,1.381,0,0,1-1.3-1,.43.43,0,0,0-.4-.4h-.1a.55.55,0,0,0-.5.3,1.288,1.288,0,0,1-2.4-.8.55.55,0,0,0-.3-.5.471.471,0,0,0-.6.1,1.222,1.222,0,0,1-1.6.1,1.254,1.254,0,0,1-.4-1.6.661.661,0,0,0-.1-.6.471.471,0,0,0-.6-.1,1.42,1.42,0,0,1-1.6-.4,1.215,1.215,0,0,1,.1-1.6.661.661,0,0,0,.1-.6.55.55,0,0,0-.5-.3,1.288,1.288,0,0,1-.8-2.4.55.55,0,0,0,.3-.5.43.43,0,0,0-.4-.4,1.3,1.3,0,0,1-1-1.3,1.381,1.381,0,0,1,1-1.3.43.43,0,0,0,.4-.4.55.55,0,0,0-.3-.5,1.288,1.288,0,0,1,.8-2.4.55.55,0,0,0,.5-.3.471.471,0,0,0-.1-.6,1.357,1.357,0,0,1-.1-1.6,1.254,1.254,0,0,1,1.6-.4.661.661,0,0,0,.6-.1.471.471,0,0,0,.1-.6,1.382,1.382,0,0,1,.4-1.6,1.215,1.215,0,0,1,1.6.1.661.661,0,0,0,.6.1.55.55,0,0,0,.3-.5,1.288,1.288,0,0,1,2.4-.8.55.55,0,0,0,.5.3.43.43,0,0,0,.4-.4,1.3,1.3,0,0,1,1.3-1,1.381,1.381,0,0,1,1.3,1,.43.43,0,0,0,.4.4.55.55,0,0,0,.5-.3,1.288,1.288,0,0,1,2.4.8.55.55,0,0,0,.3.5.471.471,0,0,0,.6-.1,1.357,1.357,0,0,1,1.6-.1,1.254,1.254,0,0,1,.4,1.6.661.661,0,0,0,.1.6.471.471,0,0,0,.6.1,1.382,1.382,0,0,1,1.6.4,1.215,1.215,0,0,1-.1,1.6.661.661,0,0,0-.1.6.55.55,0,0,0,.5.3,1.288,1.288,0,0,1,.8,2.4.55.55,0,0,0-.3.5.43.43,0,0,0,.4.4,1.3,1.3,0,0,1,1,1.3,1.381,1.381,0,0,1-1,1.3.43.43,0,0,0-.4.4.55.55,0,0,0,.3.5,1.356,1.356,0,0,1,.7,1.1,1.24,1.24,0,0,1-1.2,1.3h-.2a.55.55,0,0,0-.5.3.471.471,0,0,0,.1.6,1.357,1.357,0,0,1,.1,1.6,1.254,1.254,0,0,1-1.6.4.661.661,0,0,0-.6.1.471.471,0,0,0-.1.6,1.382,1.382,0,0,1-.4,1.6,1.215,1.215,0,0,1-1.6-.1.661.661,0,0,0-.6-.1.55.55,0,0,0-.3.5,1.3,1.3,0,0,1-.9,1.4A1.179,1.179,0,0,1,210.2,218.7Z" fill="#e5a03e"/>
    <path id="Path_31" data-name="Path 31" d="M208,216a8.2,8.2,0,1,1,8.2-8.2A8.237,8.237,0,0,1,208,216Zm0-15.5a7.2,7.2,0,1,0,7.2,7.2A7.17,7.17,0,0,0,208,200.5Z" fill="#e5a03e"/>
    <g id="Group_9" data-name="Group 9">
      <path id="Path_32" data-name="Path 32" d="M210.4,205.9a.367.367,0,0,1,.3.1l.1.1a.375.375,0,0,1,0,.6l-2.7,2.7h0l-.7.7h0l-.7-.7h0l-1.5-1.5a.375.375,0,0,1,0-.6l.1-.1a.5.5,0,0,1,.6,0l1.2,1.2a.5.5,0,0,0,.6,0l2.4-2.4a.367.367,0,0,1,.3-.1m0-1a1.284,1.284,0,0,0-1,.4l-2,2-.8-.8a1.45,1.45,0,0,0-2,0l-.1.1a1.335,1.335,0,0,0,0,2l1.4,1.4.1.1.7.7a1.08,1.08,0,0,0,.7.3h.2a.55.55,0,0,0,.5-.3l.7-.7.1-.1,2.6-2.6a1.45,1.45,0,0,0,0-2l-.1-.1a1.284,1.284,0,0,0-1-.4Z" fill="#e5a03e"/>
    </g>
    <path id="Path_33" data-name="Path 33" d="M203.8,222.1h-.1l-3.9-.9-2.5-3.3a.758.758,0,0,0-.4-.2.52.52,0,0,0-.4.2l-3.7,5.3a1.543,1.543,0,0,0-.1,1.6,1.561,1.561,0,0,0,1.3.8h2.6l1,2.5a1.344,1.344,0,0,0,.6.7,4.875,4.875,0,0,0,.7.3h.2a1.457,1.457,0,0,0,1.3-.7l3.9-5.6a.749.749,0,0,0,.1-.5A3.932,3.932,0,0,0,203.8,222.1Zm-4.5,5.8a.764.764,0,0,1-.5.2c-.1,0-.2,0-.2-.1l-.2-.2-1.1-2.8a.55.55,0,0,0-.5-.3l-3-.1c-.2,0-.3-.1-.4-.3a.446.446,0,0,1,0-.5l3.3-4.7,2.2,2.8c.1.1.2.2.3.2l3.5.7Z" fill="#e5a03e"/>
    <path id="Path_34" data-name="Path 34" d="M223.2,223.4l-3.5-5.4a.5.5,0,0,0-.8,0l-2.6,3.2-3.9.7-.2.1c-.2,0-.3.2-.4.3a.454.454,0,0,0,0,.5l3.7,5.7a1.709,1.709,0,0,0,1.3.7h.1a1.445,1.445,0,0,0,.7-.2,1.344,1.344,0,0,0,.6-.7l1.1-2.4h2.6a1.723,1.723,0,0,0,1.4-.8A2.007,2.007,0,0,0,223.2,223.4Zm-.9,1.1a.536.536,0,0,1-.4.3h-3a.55.55,0,0,0-.5.3l-1.2,2.7a.215.215,0,0,1-.2.2c-.1,0-.1.1-.2.1a.764.764,0,0,1-.5-.2l-3.3-5.1,3.5-.6c.1,0,.2-.1.3-.2l2.3-2.8,3.1,4.8C222.4,224.1,222.4,224.3,222.3,224.5Z" fill="#e5a03e"/>
    <path id="Path_35" data-name="Path 35" d="M207.7,195.3a12.2,12.2,0,1,0,12.2,12.2A12.249,12.249,0,0,0,207.7,195.3Zm.2,20.7a8,8,0,1,1,8-8A8.024,8.024,0,0,1,207.9,216Z" fill="#e5a03e" opacity="0.1"/>
  </g>
</svg>
