<svg xmlns="http://www.w3.org/2000/svg" width="13.622" height="14.6" viewBox="0 0 13.622 14.6">
  <g id="Group_1" data-name="Group 1" transform="translate(-306.9 -59)">
    <path id="Path_1" data-name="Path 1" d="M318,60h-.7V59h-1v1h-1.1V59h-1v1h-1.1V59h-1v1H311V59h-1v1h-.5a2.582,2.582,0,0,0-2.6,2.6V71a2.582,2.582,0,0,0,2.6,2.6h8.4a2.582,2.582,0,0,0,2.6-2.6V62.6A2.339,2.339,0,0,0,318,60Zm-8.4,1.3h.5v.9h1v-.9h1.1v.9h1v-.9h1.1v.9h1v-.9h1.1v.9h1v-.9h.7a1.43,1.43,0,0,1,1.4,1.4v.8H308.4v-.8A1.215,1.215,0,0,1,309.6,61.3ZM318,72.4h-8.4a1.43,1.43,0,0,1-1.4-1.4V64.4h11.1V71A1.236,1.236,0,0,1,318,72.4Z" fill="#8594b0"/>
    <path id="Path_2" data-name="Path 2" d="M316.4,66.3h-1v.6h-3.1v-.6h-1v.6h-.9v1h.9V69h-.9v1h.9v.7h1V70h3.1v.7h1V70h.9V69h-.9V67.9h.9v-1h-.9Zm-1,2.6h-3.1V67.8h3.1Z" fill="#8594b0"/>
  </g>
</svg>
