<svg xmlns="http://www.w3.org/2000/svg" width="78" height="36.8" viewBox="0 0 78 36.8">
  <g id="Group_39" data-name="Group 39" transform="translate(-274.1 -289)">
    <path id="Path_121" data-name="Path 121" d="M318,300.9c0-2.4-1.3-3.7-4.6-4.6-2.4-.6-2.9-1.1-2.9-2.1,0-.7.4-1.5,1.8-1.6a1.985,1.985,0,0,1,2.2,1.6h3.2c-.2-1.7-1.2-3.4-4-3.8V289h-2.6v1.5a4.121,4.121,0,0,0-3.7,4.1c0,2.1,1.1,3.5,4.9,4.5,2.1.6,2.7,1.1,2.7,2.2,0,.9-.5,1.7-2.2,1.7a2.416,2.416,0,0,1-2.5-1.8h-3.2c.2,2.1,1.7,3.7,4.3,4.1v1.8h2.7v-1.8C316.4,304.8,318.1,303.4,318,300.9Z" fill="#ef5a4b"/>
    <g id="Group_34" data-name="Group 34">
      <path id="Path_122" data-name="Path 122" d="M306.6,321.5v1a1.268,1.268,0,0,0,.1.6c.5,1.6,3,2.7,6.1,2.7,3.5,0,6.2-1.5,6.2-3.3v-1a9.191,9.191,0,0,1-6.2,2A9.382,9.382,0,0,1,306.6,321.5Z" fill="#2e6289"/>
      <path id="Path_123" data-name="Path 123" d="M319,318.8v-1a9.191,9.191,0,0,1-6.2,2,9.382,9.382,0,0,1-6.2-2v1.1a1.268,1.268,0,0,0,.1.6c.5,1.6,3,2.7,6.1,2.7,3.5,0,6.2-1.5,6.2-3.3Z" fill="#2e6289"/>
      <path id="Path_124" data-name="Path 124" d="M312.8,311.9c-3,0-5.5,1.1-6.1,2.7a1.85,1.85,0,0,0,0,1.2c.5,1.6,3,2.7,6.1,2.7,3.5,0,6.2-1.5,6.2-3.3S316.3,311.9,312.8,311.9Z" fill="#2e6289"/>
    </g>
    <g id="Group_35" data-name="Group 35">
      <path id="Path_125" data-name="Path 125" d="M274.1,320.9v1a1.268,1.268,0,0,0,.1.6c.5,1.6,3,2.7,6.1,2.7,3.5,0,6.2-1.5,6.2-3.3v-1a10.61,10.61,0,0,1-12.4,0Z" fill="#2e6289"/>
      <path id="Path_126" data-name="Path 126" d="M286.5,318.2v-1a9.191,9.191,0,0,1-6.2,2,9.382,9.382,0,0,1-6.2-2v1.1a1.268,1.268,0,0,0,.1.6c.5,1.6,3,2.7,6.1,2.7,3.5,0,6.2-1.5,6.2-3.3Z" fill="#2e6289"/>
      <path id="Path_127" data-name="Path 127" d="M280.3,311.3c-3,0-5.5,1.1-6.1,2.7a1.85,1.85,0,0,0,0,1.2c.5,1.6,3,2.7,6.1,2.7,3.5,0,6.2-1.5,6.2-3.3S283.7,311.3,280.3,311.3Z" fill="#2e6289"/>
    </g>
    <g id="Group_36" data-name="Group 36">
      <path id="Path_128" data-name="Path 128" d="M339.7,320.9v1a1.268,1.268,0,0,0,.1.6c.5,1.6,3,2.7,6.1,2.7,3.5,0,6.2-1.5,6.2-3.3v-1a9.191,9.191,0,0,1-6.2,2A9.382,9.382,0,0,1,339.7,320.9Z" fill="#2e6289"/>
      <path id="Path_129" data-name="Path 129" d="M352.1,318.2v-1a9.191,9.191,0,0,1-6.2,2,9.382,9.382,0,0,1-6.2-2v1.1a1.268,1.268,0,0,0,.1.6c.5,1.6,3,2.7,6.1,2.7,3.5,0,6.2-1.5,6.2-3.3Z" fill="#2e6289"/>
      <path id="Path_130" data-name="Path 130" d="M345.9,311.3c-3,0-5.5,1.1-6.1,2.7a1.85,1.85,0,0,0,0,1.2c.5,1.6,3,2.7,6.1,2.7,3.5,0,6.2-1.5,6.2-3.3S349.4,311.3,345.9,311.3Z" fill="#2e6289"/>
    </g>
    <g id="Group_37" data-name="Group 37">
      <path id="Path_131" data-name="Path 131" d="M290.9,321.1v.9a1.268,1.268,0,0,0,.1.6c.5,1.5,2.9,2.6,5.8,2.6,3.3,0,5.9-1.4,5.9-3.2v-.9a8.694,8.694,0,0,1-5.9,1.9A8.515,8.515,0,0,1,290.9,321.1Z" fill="#09a8d3"/>
      <path id="Path_132" data-name="Path 132" d="M296.8,305c-2.9,0-5.3,1.1-5.8,2.6a1.85,1.85,0,0,0,0,1.2c.5,1.5,2.9,2.6,5.8,2.6,3.3,0,5.9-1.4,5.9-3.2S300.1,305,296.8,305Z" fill="#09a8d3"/>
      <path id="Path_133" data-name="Path 133" d="M302.7,318.5v-.8a10.111,10.111,0,0,1-11.8,0v.9a1.268,1.268,0,0,0,.1.6c.5,1.5,2.9,2.6,5.8,2.6,3.3,0,5.9-1.4,5.9-3.2Z" fill="#09a8d3"/>
      <path id="Path_134" data-name="Path 134" d="M302.7,311.6v-.9a10.111,10.111,0,0,1-11.8,0v1a1.268,1.268,0,0,0,.1.6c.5,1.5,2.9,2.6,5.8,2.6,3.3,0,5.9-1.4,5.9-3.2Z" fill="#09a8d3"/>
      <path id="Path_135" data-name="Path 135" d="M302.7,315v-.8a10.111,10.111,0,0,1-11.8,0v.9a1.268,1.268,0,0,0,.1.6c.5,1.5,2.9,2.6,5.8,2.6,3.3,0,5.9-1.4,5.9-3.2Z" fill="#09a8d3"/>
    </g>
    <g id="Group_38" data-name="Group 38">
      <path id="Path_136" data-name="Path 136" d="M322.8,320.8v1a1.268,1.268,0,0,0,.1.6c.5,1.6,3,2.7,6.1,2.7,3.5,0,6.2-1.5,6.2-3.3v-1a10.61,10.61,0,0,1-12.4,0Z" fill="#09a8d3"/>
      <path id="Path_137" data-name="Path 137" d="M335.1,318.1v-.9a9.191,9.191,0,0,1-6.2,2,9.382,9.382,0,0,1-6.2-2v1a1.268,1.268,0,0,0,.1.6c.5,1.6,3,2.7,6.1,2.7,3.5,0,6.2-1.5,6.2-3.3Z" fill="#09a8d3"/>
      <path id="Path_138" data-name="Path 138" d="M335.1,314.6v-.9a9.191,9.191,0,0,1-6.2,2,9.382,9.382,0,0,1-6.2-2v1a1.268,1.268,0,0,0,.1.6c.5,1.6,3,2.7,6.1,2.7,3.5,0,6.2-1.5,6.2-3.3Z" fill="#09a8d3"/>
      <path id="Path_139" data-name="Path 139" d="M335.1,311v-1a9.191,9.191,0,0,1-6.2,2,9.382,9.382,0,0,1-6.2-2v1.1a1.268,1.268,0,0,0,.1.6c.5,1.6,3,2.7,6.1,2.7,3.5,0,6.2-1.5,6.2-3.3Z" fill="#09a8d3"/>
      <path id="Path_140" data-name="Path 140" d="M329,304.1c-3,0-5.5,1.1-6.1,2.7a1.85,1.85,0,0,0,0,1.2c.5,1.6,3,2.7,6.1,2.7,3.5,0,6.2-1.5,6.2-3.3S332.4,304.1,329,304.1Z" fill="#09a8d3"/>
    </g>
  </g>
</svg>
