<svg xmlns="http://www.w3.org/2000/svg" width="41.125" height="30.1" viewBox="0 0 41.125 30.1">
  <g id="Group_11" data-name="Group 11" transform="translate(-116.3 -199.1)">
    <path id="Path_36" data-name="Path 36" d="M144.7,206l-2.1-5.4H131.2l-2.1,5.4Z" fill="#f4d9de"/>
    <path id="Path_37" data-name="Path 37" d="M129.5,200.6h-5.8l-4.8,5.4h8.5Z" fill="#f9f2f3"/>
    <path id="Path_38" data-name="Path 38" d="M119,207.6l15.8,17.3-7.1-17.3Z" fill="#f4d9de"/>
    <path id="Path_39" data-name="Path 39" d="M144.4,207.6h-15l7.5,18.3,3.3-8.3,1.8-4.1Z" fill="#f9f2f3"/>
    <path id="Path_40" data-name="Path 40" d="M154.7,206l-5.2-5.4h-5.2l2.1,5.4Z" fill="#f9f2f3"/>
    <path id="Path_41" data-name="Path 41" d="M143.4,214.1l-1.7,4.1-2.6,6.6,15.6-17.2h-8.6Z" fill="#f4d9de"/>
    <path id="Path_42" data-name="Path 42" d="M157.2,206.2l-6.8-6.9a.735.735,0,0,0-.6-.2H123.4a.864.864,0,0,0-.6.3l-6.2,6.9-.1.1-.1.1c0,.1-.1.2-.1.3h0a.367.367,0,0,0,.1.3,621944489264.463,621944489264.463,0,0,0,.2.2l19.7,21.6a.864.864,0,0,0,.6.3h0a.864.864,0,0,0,.6-.3l19.7-21.7A.668.668,0,0,0,157.2,206.2Zm-7.7-5.6,5.2,5.3h-8.3l-2.1-5.3Zm-6.9,0,2.1,5.3H129.1l2.1-5.3Zm-18.9,0h5.7l-2.1,5.3h-8.4Zm-4.7,7h8.7l7.1,17.3Zm17.9,18.3-7.5-18.3h14.9l-2.4,5.9-1.7,4.2Zm2.2-1.1,2.7-6.5,1.7-4.2,2.7-6.5h8.6Z" fill="#e02254"/>
  </g>
</svg>
