<svg xmlns="http://www.w3.org/2000/svg" width="15.9" height="15.9" viewBox="0 0 15.9 15.9">
  <g id="Group_22" data-name="Group 22" transform="translate(-56 -57.9)">
    <path id="Path_69" data-name="Path 69" d="M61.5,65.1H57.7A1.752,1.752,0,0,1,56,63.4V59.6a1.752,1.752,0,0,1,1.7-1.7h3.8a1.752,1.752,0,0,1,1.7,1.7v3.8A1.752,1.752,0,0,1,61.5,65.1Zm-3.8-5.8a.265.265,0,0,0-.3.3v3.8a.265.265,0,0,0,.3.3h3.8a.265.265,0,0,0,.3-.3V59.6a.265.265,0,0,0-.3-.3Z" fill="#8794b2"/>
    <path id="Path_70" data-name="Path 70" d="M70.2,65.1H66.4a1.752,1.752,0,0,1-1.7-1.7V59.6a1.752,1.752,0,0,1,1.7-1.7h3.8a1.752,1.752,0,0,1,1.7,1.7v3.8A1.752,1.752,0,0,1,70.2,65.1Zm-3.8-5.8a.265.265,0,0,0-.3.3v3.8a.265.265,0,0,0,.3.3h3.8a.265.265,0,0,0,.3-.3V59.6a.265.265,0,0,0-.3-.3Z" fill="#8794b2"/>
    <path id="Path_71" data-name="Path 71" d="M70.2,73.8H66.4a1.752,1.752,0,0,1-1.7-1.7V68.3a1.752,1.752,0,0,1,1.7-1.7h3.8a1.752,1.752,0,0,1,1.7,1.7v3.8A1.752,1.752,0,0,1,70.2,73.8ZM66.4,68a.265.265,0,0,0-.3.3v3.8a.265.265,0,0,0,.3.3h3.8a.265.265,0,0,0,.3-.3V68.3a.265.265,0,0,0-.3-.3Z" fill="#8794b2"/>
    <path id="Path_72" data-name="Path 72" d="M61.5,73.8H57.7A1.752,1.752,0,0,1,56,72.1V68.3a1.752,1.752,0,0,1,1.7-1.7h3.8a1.752,1.752,0,0,1,1.7,1.7v3.8A1.752,1.752,0,0,1,61.5,73.8ZM57.7,68a.265.265,0,0,0-.3.3v3.8a.265.265,0,0,0,.3.3h3.8a.265.265,0,0,0,.3-.3V68.3a.265.265,0,0,0-.3-.3Z" fill="#8794b2"/>
  </g>
</svg>
