<svg xmlns="http://www.w3.org/2000/svg" width="21" height="17.3" viewBox="0 0 21 17.3">
  <g id="Group_4" data-name="Group 4" transform="translate(-134 -56.7)">
    <rect id="Rectangle_2" data-name="Rectangle 2" width="1.6" height="1.1" transform="translate(140 61.4)" fill="#8593b2"/>
    <rect id="Rectangle_3" data-name="Rectangle 3" width="1.6" height="1.1" transform="translate(140 63.7)" fill="#8593b2"/>
    <path id="Path_13" data-name="Path 13" d="M147.3,62.7c-.3-.1-.6-.2-1-.3-.2-.1-.4-.1-.6-.2-.1,0-.2-.1-.3-.2s-.1-.1-.1-.2.1-.3.2-.3a.749.749,0,0,1,.5-.1.9.9,0,0,1,.5.1c.1.1.2.2.2.3l.1.1h1.1v-.1c0-.2-.1-.3-.2-.5s-.3-.3-.5-.5a6.89,6.89,0,0,0-.8-.3V60a.1.1,0,0,0-.1-.1h-.8v.6a1.881,1.881,0,0,0-1.1.5,1.222,1.222,0,0,0-.4.9,1.445,1.445,0,0,0,.2.7c.1.2.3.3.5.5a4.649,4.649,0,0,0,.9.3c.3.1.5.1.6.2.2.1.3.1.3.2.1.1.1.1.1.2s-.1.3-.2.3c-.1.1-.3.1-.6.1-.2,0-.3,0-.4-.1-.1,0-.2-.1-.3-.2l-.2-.2-.1-.1h-1.1v.1a1.421,1.421,0,0,0,.2.6c.1.2.3.3.5.5a4.65,4.65,0,0,0,.9.3v.6h.8l.1-.1v-.5a1.884,1.884,0,0,0,.8-.2,2.652,2.652,0,0,0,.6-.5,1.325,1.325,0,0,0,0-1.4C147.7,63,147.5,62.8,147.3,62.7Z" fill="#8593b2"/>
    <path id="Path_14" data-name="Path 14" d="M155,62v-.4a7.145,7.145,0,0,0-.2-2c-.4-1.3-.9-2.8-4.1-2.8l-1-.1H138.4a1.685,1.685,0,0,0-1.7,1.7v9.4h-2a.684.684,0,0,0-.7.7v1.8a3.843,3.843,0,0,0,3.3,3.7h11.2a2.918,2.918,0,0,0,2.2-.7,2.578,2.578,0,0,0,.7-2V64.1h2.2a.975.975,0,0,0,.9-.4C155,63.4,155,62.5,155,62ZM137.6,72.8h-.1a2.444,2.444,0,0,1-2.1-2.3V69.4h10.2v1.8a3.36,3.36,0,0,0,.5,1.6ZM150,63.5h0v8c0,.4-.1.8-.3.9a2.42,2.42,0,0,1-1.4.3c-.1,0-.1-.1-.2-.1-.6-.2-1.1-.4-1.2-1.6V68.5a.684.684,0,0,0-.7-.7H138V58.4a.265.265,0,0,1,.3-.3h11.3a.265.265,0,0,1,.3.3v5.1Zm3.5-.6h-2.2V58.4a2.183,2.183,0,0,1,2.1,1.7c.1.5.1,1.1.2,1.6v.4C153.6,62.5,153.6,62.8,153.5,62.9Z" fill="#8593b2"/>
  </g>
</svg>
