<svg xmlns="http://www.w3.org/2000/svg" width="17.9" height="16.5" viewBox="0 0 17.9 16.5">
  <g id="Group_5" data-name="Group 5" transform="translate(-96.6 -58.3)">
    <path id="Path_15" data-name="Path 15" d="M113.7,67.5l-.6-.1c-.1-.2-.1-.3-.2-.5l.3-.5a.769.769,0,0,0-.1-1l-.6-.6a.769.769,0,0,0-1-.1l-.5.3c-.2-.1-.3-.2-.5-.2l-.1-.6a.849.849,0,0,0-.8-.7h-.9a.849.849,0,0,0-.8.7l-.1.6c-.2.1-.3.1-.5.2l-.5-.3a.758.758,0,0,0-1,.1l-.6.6a.769.769,0,0,0-.1,1l.4.5c-.1.2-.1.3-.2.5l-.6.1a.849.849,0,0,0-.7.8v.9a.849.849,0,0,0,.7.8l.6.1c.1.2.1.3.2.5l-.3.5a.769.769,0,0,0,.1,1l.6.6a.769.769,0,0,0,1,.1l.5-.4c.2.1.3.1.5.2l.1.6a.849.849,0,0,0,.8.7h.9a.849.849,0,0,0,.8-.7l.1-.6c.2-.1.3-.1.5-.2l.5.3a.769.769,0,0,0,1-.1l.6-.6a.769.769,0,0,0,.1-1l-.3-.5c.1-.2.2-.3.2-.5l.6-.1a.849.849,0,0,0,.7-.8v-.9A1.143,1.143,0,0,0,113.7,67.5Zm-1.4,2a6.889,6.889,0,0,1-.3.8.454.454,0,0,0,0,.5l.5.6-.5.5-.6-.5a.446.446,0,0,0-.5,0,1.33,1.33,0,0,1-.8.3c-.2,0-.3.2-.3.4l-.1.8H109l-.1-.8c0-.2-.2-.3-.3-.4-.3-.1-.5-.2-.8-.3a.454.454,0,0,0-.5,0l-.6.5-.5-.5.4-.6a.446.446,0,0,0,0-.5,1.33,1.33,0,0,1-.3-.8c0-.2-.2-.3-.4-.3l-.8-.1v-.7l.8-.1c.2,0,.3-.2.4-.3a6.889,6.889,0,0,1,.3-.8.454.454,0,0,0,0-.5L106,66l.5-.5.6.4a.446.446,0,0,0,.5,0,1.33,1.33,0,0,1,.8-.3c.2,0,.3-.2.3-.4l.1-.8h.7l.1.8c0,.2.2.3.3.4a6.889,6.889,0,0,1,.8.3.454.454,0,0,0,.5,0l.6-.5.5.5-.5.6a.446.446,0,0,0,0,.5,1.33,1.33,0,0,1,.3.8c0,.2.2.3.4.3l.8.1v.7l-.8.1C112.5,69.2,112.4,69.3,112.3,69.5Z" fill="#8c99b6"/>
    <path id="Path_16" data-name="Path 16" d="M109.2,66.9a1.9,1.9,0,0,0-1.9,1.9,1.9,1.9,0,1,0,3.8,0A1.9,1.9,0,0,0,109.2,66.9Zm1.1,1.8a1.1,1.1,0,1,1-1.1-1.1A1.11,1.11,0,0,1,110.3,68.7Z" fill="#8c99b6"/>
    <path id="Path_17" data-name="Path 17" d="M102.1,64.5a3.107,3.107,0,0,0,0-6.2,3.1,3.1,0,0,0,0,6.2Zm0-4.8a1.586,1.586,0,0,1,1.5,1.7,1.557,1.557,0,1,1-1.5-1.7Z" fill="#8c99b6"/>
    <path id="Path_18" data-name="Path 18" d="M104,72.8a.675.675,0,0,0-.6.4,4.331,4.331,0,0,1-.5.1h-2a.749.749,0,0,1-.5-.1l-1.1-3.7a.752.752,0,0,0-.7-.5H98V66.3h2a3.677,3.677,0,0,0,2,.5.7.7,0,0,0,0-1.4,4.36,4.36,0,0,1-1.2-.2c-.1-.2-.3-.2-.5-.2H98.5c-1.1,0-1.9.4-1.9,1.1v3.4c0,.6.6,1,1.5,1.1l1,3.2c.1.6.8,1,1.8,1h2c1.1,0,1.9-.5,1.9-1.2C104.7,73.1,104.4,72.8,104,72.8Z" fill="#8c99b6"/>
  </g>
</svg>
