<svg xmlns="http://www.w3.org/2000/svg" width="22" height="17" viewBox="0 0 22 17">
  <g id="Group_3" data-name="Group 3" transform="translate(-222.9 -55.8)">
    <path id="Path_10" data-name="Path 10" d="M230,66.1h1V62.5h-4.5v3.6H230Zm-2.5-2.6H230v1.6h-2.5Z" fill="#8593b2"/>
    <rect id="Rectangle_1" data-name="Rectangle 1" width="12.3" height="1" transform="translate(226.3 68.3)" fill="#8593b2"/>
    <path id="Path_11" data-name="Path 11" d="M242.8,55.8H229.3a2.136,2.136,0,0,0-1.7.8,1.746,1.746,0,0,0-.4,1.2v.9h-1.5a2.99,2.99,0,0,0-2.3,1.1,2.353,2.353,0,0,0-.5,1.6v8.7a2.775,2.775,0,0,0,2.8,2.7h13.5a2.775,2.775,0,0,0,2.8-2.7V68.5h.8a2.03,2.03,0,0,0,2.1-2V57.8A2.094,2.094,0,0,0,242.8,55.8Zm-2.3,14.4a1.347,1.347,0,0,1-1.4,1.3H225.6a1.347,1.347,0,0,1-1.4-1.3V61.5a1.136,1.136,0,0,1,.3-.8,1.738,1.738,0,0,1,1.1-.6h13.5a1.347,1.347,0,0,1,1.4,1.3v8.8Zm3-3.7a.669.669,0,0,1-.7.6H242V61.4a2.775,2.775,0,0,0-2.8-2.7H228.6v-.9a.438.438,0,0,1,.1-.3.713.713,0,0,1,.6-.3h13.5a.669.669,0,0,1,.7.6Z" fill="#8593b2"/>
  </g>
</svg>
