<svg xmlns="http://www.w3.org/2000/svg" width="74.8" height="53" viewBox="0 0 74.8 53">
  <g id="Group_33" data-name="Group 33" transform="translate(-163.3 -272.3)">
    <path id="Path_99" data-name="Path 99" d="M233.2,315.3a7.719,7.719,0,0,0-1.5.2h-.3a4.7,4.7,0,0,0-.9-1.2,4.75,4.75,0,0,0-5-1.2,2.693,2.693,0,0,0-2.4-1.4,1.7,1.7,0,0,0-.7.1,3.956,3.956,0,0,0-1-1.5,4.467,4.467,0,0,0-6.4,0,3.977,3.977,0,0,0-1.2,2.3,1.483,1.483,0,0,0-.7-.1,2.739,2.739,0,0,0-2.3,1.4,3.532,3.532,0,0,0-3.1-1.8,1.483,1.483,0,0,0-.7.1c-4.5-3.8-4.9-14.9-4.2-17.6h-2.3s.5,8.8-2.3,14.4a4.338,4.338,0,0,0-4.1,1.3,9.379,9.379,0,0,0-.9,1.2,2.933,2.933,0,0,0-3.7,2.7v.3a3.986,3.986,0,0,0-2.4-.7,3.847,3.847,0,0,0-2.9,1.2,3.5,3.5,0,0,0-2.2-.8,3.775,3.775,0,0,0-2.3.8,5.127,5.127,0,0,0-1.4-3.4,4.769,4.769,0,0,0-6.8,0,4.185,4.185,0,0,0-1.1,1.8h-.1a2.568,2.568,0,0,0-2.5,2.1,4.909,4.909,0,0,0,.4,9.8,1.7,1.7,0,0,0,.7-.1h63.4a2.768,2.768,0,0,0,.9.1,5,5,0,0,0,0-10Z" fill="#c7e2f9"/>
    <path id="Path_100" data-name="Path 100" d="M207.6,284.3l-.1-.5a15.121,15.121,0,0,0-1-6.4,17.39,17.39,0,0,0-1.1-1.8.1.1,0,0,0-.1.1,13.61,13.61,0,0,1-3.6.5h-.1a13.089,13.089,0,0,1-4.1-.6c-.4.6-.8,1.2-1.2,1.9a13.125,13.125,0,0,0-1.1,6.3v.5c0,.1.1,1.1.2,1.1h0V295h2.2a1.268,1.268,0,0,0,.1.6l1.7,4.5h3.9l1.1-4.1a2.92,2.92,0,0,0,.2-.9h2.5V284.6c0,.3.1.9.2.9h0C207.5,285.4,207.6,284.5,207.6,284.3Z" fill="#f9b69f"/>
    <path id="Path_101" data-name="Path 101" d="M201.7,275.7a13.425,13.425,0,0,0,3.5-.4,17.237,17.237,0,0,0-2.7-2.7,1.817,1.817,0,0,0-2,0,10.7,10.7,0,0,0-2.6,2.6A14.575,14.575,0,0,0,201.7,275.7Z" fill="#f9b69f"/>
    <g id="Group_24" data-name="Group 24">
      <circle id="Ellipse_12" data-name="Ellipse 12" cx="3.4" cy="3.4" r="3.4" transform="translate(198.2 278.2)" fill="#ef5a4b"/>
      <path id="Path_102" data-name="Path 102" d="M201.6,285.2a3.683,3.683,0,0,1-3.1-1.7h0a3.588,3.588,0,0,1,1.1-5,3.69,3.69,0,0,1,2.7-.5,4.064,4.064,0,0,1,2.3,1.6,3.588,3.588,0,0,1-1.1,5A3.534,3.534,0,0,1,201.6,285.2Zm-2.7-1.9a3.191,3.191,0,1,0,5.4-3.4,3.524,3.524,0,0,0-2-1.4,3.358,3.358,0,0,0-2.4.4,3.524,3.524,0,0,0-1.4,2,2.984,2.984,0,0,0,.4,2.4Z" fill="#ef5a4b"/>
    </g>
    <circle id="Ellipse_13" data-name="Ellipse 13" cx="2" cy="2" r="2" transform="translate(199.6 279.6)" fill="#fff"/>
    <g id="Group_25" data-name="Group 25">
      <circle id="Ellipse_14" data-name="Ellipse 14" cx="0.2" cy="0.2" r="0.2" transform="translate(204 281.5)" fill="#fff"/>
      <path id="Path_103" data-name="Path 103" d="M204.2,282h0a.349.349,0,0,1-.2-.1h0c0-.1-.1-.1,0-.2,0-.1.1-.1.1-.2.1-.1.3,0,.4.1s0,.3-.1.4A.139.139,0,0,0,204.2,282Zm-.1-.5h0c-.1,0-.1.1-.2.1v.1h0l.1.1h.1c.1,0,.1-.1,0-.2C204.3,281.5,204.2,281.5,204.1,281.5Z" fill="#fff"/>
    </g>
    <g id="Group_26" data-name="Group 26">
      <circle id="Ellipse_15" data-name="Ellipse 15" cx="0.2" cy="0.2" r="0.2" transform="translate(198.7 281.3)" fill="#fff"/>
      <path id="Path_104" data-name="Path 104" d="M198.9,281.8c-.1,0-.2,0-.2-.1s-.1-.1,0-.2c0-.1.1-.1.1-.2.1-.1.3,0,.4.1s0,.3-.1.4C199,281.7,199,281.8,198.9,281.8Zm0-.5h0c-.1,0-.1.1-.2.1v.1h0c0,.1.1.1.2,0,.1,0,.1-.1,0-.2Z" fill="#fff"/>
    </g>
    <g id="Group_27" data-name="Group 27">
      <circle id="Ellipse_16" data-name="Ellipse 16" cx="0.2" cy="0.2" r="0.2" transform="translate(203.3 279.6)" fill="#fff"/>
      <path id="Path_105" data-name="Path 105" d="M203.5,280.1h0c-.2,0-.3-.2-.3-.4,0-.1.1-.1.1-.2.1,0,.1-.1.2,0,.2,0,.3.2.2.4A.215.215,0,0,1,203.5,280.1Zm-.1-.2c.1,0,.2,0,.2-.1s0-.2-.1-.2h-.1l-.1.1c0,.1,0,.2.1.2Z" fill="#fff"/>
    </g>
    <g id="Group_28" data-name="Group 28">
      <circle id="Ellipse_17" data-name="Ellipse 17" cx="0.2" cy="0.2" r="0.2" transform="translate(199.4 283.1)" fill="#fff"/>
      <path id="Path_106" data-name="Path 106" d="M199.6,283.6h0c-.2,0-.3-.2-.3-.4s.2-.3.4-.2c.1,0,.1.1.2.1,0,.1.1.1,0,.2A.265.265,0,0,1,199.6,283.6Zm0-.4c-.1,0-.1.1-.2.1,0,.1,0,.2.1.2s.2,0,.2-.1v-.1c0-.1,0-.1-.1-.1Z" fill="#fff"/>
    </g>
    <g id="Group_29" data-name="Group 29">
      <circle id="Ellipse_18" data-name="Ellipse 18" cx="0.2" cy="0.2" r="0.2" transform="translate(201.4 278.8)" fill="#fff"/>
      <path id="Path_107" data-name="Path 107" d="M201.6,279.2h0a.349.349,0,0,1-.2-.1c0-.1-.1-.1,0-.2,0-.1.1-.1.1-.2.1-.1.3,0,.4.1s0,.3-.1.4h-.2Zm0-.4h0c-.1,0-.1.1-.2.1v.1l.1.1h.1c.1,0,.1-.1.1-.2s0-.1-.1-.1Z" fill="#fff"/>
    </g>
    <g id="Group_30" data-name="Group 30">
      <circle id="Ellipse_19" data-name="Ellipse 19" cx="0.2" cy="0.2" r="0.2" transform="translate(201.2 284)" fill="#fff"/>
      <path id="Path_108" data-name="Path 108" d="M201.4,284.5c-.1,0-.2,0-.2-.1s-.1-.1,0-.2c0-.1.1-.1.1-.2.1,0,.1-.1.2,0,.1,0,.1.1.2.1.1.1,0,.3-.1.4h-.2Zm0-.5h0c-.1,0-.1.1-.2.1v.1c0,.1.1.1.2,0,.1,0,.1-.1,0-.2.2.1.1,0,0,0Z" fill="#fff"/>
    </g>
    <g id="Group_31" data-name="Group 31">
      <circle id="Ellipse_20" data-name="Ellipse 20" cx="0.2" cy="0.2" r="0.2" transform="translate(199.6 279.5)" fill="#fff"/>
      <path id="Path_109" data-name="Path 109" d="M199.8,279.9h0c-.2,0-.3-.2-.3-.4s.2-.3.4-.2c.2,0,.3.2.2.4h0C200,279.9,199.9,279.9,199.8,279.9Zm0-.4c-.1,0-.1.1-.2.1,0,.1,0,.2.1.2s.2,0,.2-.1,0-.2-.1-.2Z" fill="#fff"/>
    </g>
    <g id="Group_32" data-name="Group 32">
      <circle id="Ellipse_21" data-name="Ellipse 21" cx="0.2" cy="0.2" r="0.2" transform="translate(203.1 283.3)" fill="#fff"/>
      <path id="Path_110" data-name="Path 110" d="M203.3,283.8h0a.349.349,0,0,1-.2-.1c0-.1-.1-.1,0-.2,0-.1.1-.1.1-.2.1,0,.1-.1.2,0,.1,0,.1.1.2.1,0,.1.1.1,0,.2h0C203.6,283.7,203.5,283.8,203.3,283.8Zm0-.5h0c-.1,0-.1.1-.2.1v.1l.1.1c.1,0,.2,0,.2-.1h0v-.1a.1.1,0,0,0-.1-.1Z" fill="#fff"/>
    </g>
    <path id="Path_111" data-name="Path 111" d="M201.5,287.1h0c-1.2,0-1.3,7.6-1.3,8,0,.3,0,8,1.2,8h0c1.2,0,1.3-7.6,1.3-8S202.7,287.1,201.5,287.1Z" fill="#ef5a4b"/>
    <path id="Path_112" data-name="Path 112" d="M211.2,289.6l-3.7-5.4h0l-.6,10.1h0l2,6.9a.215.215,0,0,0,.2.2,1.217,1.217,0,0,0,1-.6,2.46,2.46,0,0,0,.4-1.1c0-.2.3-2.5.6-4.5.4-2.9.7-4.7.7-4.9C211.5,290.2,211.4,289.9,211.2,289.6Z" fill="#ef5a4b"/>
    <path id="Path_113" data-name="Path 113" d="M196.1,294.7l-.3-10.4h0v-.1h-.1l-3.7,5.3a1.222,1.222,0,0,0-.3.9l1,9.6a.975.975,0,0,0,.4.9,1.222,1.222,0,0,0,.9.4h0a.349.349,0,0,0,.2-.1l1.9-6.5Z" fill="#ef5a4b"/>
    <path id="Path_114" data-name="Path 114" d="M220,278.4l-1.5-.9-.8-1.6a.3.3,0,0,0-.4,0l-.8,1.6-1.5.9c-.1,0-.1.1-.1.2s0,.1.1.2l1.5.9.8,1.6c0,.1.1.1.2.1s.2,0,.2-.1l.8-1.6,1.5-.9c.1,0,.1-.1.1-.2S220.1,278.5,220,278.4Z" fill="#ef5a4b"/>
    <path id="Path_115" data-name="Path 115" d="M184.5,303.1l-1.2-.7-.7-1.2c0-.1-.1-.1-.2-.1s-.1,0-.2.1l-.7,1.2-1.2.7c-.1,0-.1.1-.1.2s0,.1.1.2l1.2.7.7,1.2c0,.1.1.1.2.1s.1,0,.2-.1l.7-1.2,1.2-.7c.1,0,.1-.1.1-.2A.349.349,0,0,0,184.5,303.1Z" fill="#ef5a4b"/>
    <path id="Path_116" data-name="Path 116" d="M222.4,283.7l-.8-.4-.4-.8a.3.3,0,0,0-.4,0l-.4.8-.8.4c-.1,0-.1.1-.1.2s0,.1.1.2l.8.4.4.8c0,.1.1.1.2.1s.2,0,.2-.1l.4-.8.8-.4c.1,0,.1-.1.1-.2S222.5,283.7,222.4,283.7Z" fill="#ef5a4b"/>
    <path id="Path_117" data-name="Path 117" d="M178.5,294.6a1.936,1.936,0,0,0,1-1.7,2.006,2.006,0,0,0-2-2h-.4a3.316,3.316,0,0,0-3.2-2.7,3.173,3.173,0,0,0-3,2h-.3a2.263,2.263,0,0,0-2.3,2.3,2.332,2.332,0,0,0,1.3,2.1A26.214,26.214,0,0,0,178.5,294.6Z" fill="#09a8d3"/>
    <path id="Path_118" data-name="Path 118" d="M233.9,294.2a2.031,2.031,0,0,0,1.1-1.7,1.9,1.9,0,0,0-1.9-1.9h-.2a2.636,2.636,0,0,0-2.5-1.6,2.59,2.59,0,0,0-2.6,2.2h-.3a1.58,1.58,0,0,0-1.6,1.6,1.6,1.6,0,0,0,.8,1.4C226.6,294.2,229.1,295.4,233.9,294.2Z" fill="#09a8d3"/>
    <path id="Path_119" data-name="Path 119" d="M186.1,280.9a1,1,0,0,0,.6-1,1.11,1.11,0,0,0-1.1-1.1h-.1a1.568,1.568,0,0,0-1.4-.9,1.508,1.508,0,0,0-1.5,1.2h-.2a.9.9,0,0,0-.9.9,1.02,1.02,0,0,0,.5.8A5.947,5.947,0,0,0,186.1,280.9Z" fill="#c7e2f9"/>
    <path id="Path_120" data-name="Path 120" d="M219.4,303.3a1.268,1.268,0,0,1,.5-2.4h.1a1.878,1.878,0,0,1,1.6-1.1,1.8,1.8,0,0,1,1.7,1.5h.2a1.028,1.028,0,0,1,1,1.1.937.937,0,0,1-.5.9A6.226,6.226,0,0,1,219.4,303.3Z" fill="#c7e2f9"/>
  </g>
</svg>
