<svg xmlns="http://www.w3.org/2000/svg" width="52.5" height="57.2" viewBox="0 0 52.5 57.2">
  <g id="Group_43" data-name="Group 43" transform="translate(-386.1 -270.9)">
    <g id="Group_40" data-name="Group 40">
      <path id="Path_141" data-name="Path 141" d="M429.3,323.1l-16.8,5V309.5l16.8,2.5Z" fill="#0b84af"/>
      <path id="Path_142" data-name="Path 142" d="M393.9,308.2l18.6,1.3v18.6l-18.6-5Z" fill="#09a8d3"/>
      <path id="Path_143" data-name="Path 143" d="M411.9,297.7l9.9-6.9L438,297l-9.9,6.3" fill="#22bce0"/>
      <path id="Path_144" data-name="Path 144" d="M394.7,303.3l-8.3-6.3,18-6.2,8.7,6.9" fill="#22bce0"/>
      <path id="Path_145" data-name="Path 145" d="M394.5,303.2l-8.4,5.3,19.3,6.9,7.7-5.9" fill="#22bce0"/>
      <path id="Path_146" data-name="Path 146" d="M412.5,309.5l10.6,5.6,15.5-8.1-10.5-3.7" fill="#22bce0"/>
      <path id="Path_147" data-name="Path 147" d="M394.5,303.3l17.9-6.1,15.7,6.1-15.3,6.1Z" fill="#0b84af"/>
    </g>
    <g id="Group_41" data-name="Group 41">
      <path id="Path_148" data-name="Path 148" d="M410.6,295.2l2.2,2.7,1.9-1.1,2.7,3.1.8-5.4a1.4,1.4,0,0,0-1.1-1.5l-6.7-1a1.341,1.341,0,0,0-1.5,1.1l-.5,3.6Z" fill="#ef5a4b"/>
      <path id="Path_149" data-name="Path 149" d="M414.5,297.8l-5.6,3.2c-.2.1-.1.3.1.4l7.3,1.1a.641.641,0,0,0,.8-.6l.1-.9Z" fill="#ef5a4b"/>
      <path id="Path_150" data-name="Path 150" d="M408.4,300.5l3.8-2.2-1.7-2.1-2.2,1.5-.3,2.4A.308.308,0,0,0,408.4,300.5Z" fill="#ef5a4b"/>
      <path id="Path_151" data-name="Path 151" d="M416.2,295a.608.608,0,1,1-.5-.7A.752.752,0,0,1,416.2,295Z" fill="#fff"/>
    </g>
    <g id="Group_42" data-name="Group 42">
      <path id="Path_152" data-name="Path 152" d="M412.5,283.2l-1.3-7.1a.76.76,0,0,0-.8-.6l-7.1,1.3a.76.76,0,0,0-.6.8l1.3,7.1a.76.76,0,0,0,.8.6l7.1-1.3C412.4,283.9,412.6,283.6,412.5,283.2Zm-9.1-5.8,7.1-1.3c.1,0,.2,0,.2.1l1,5.2-2.7-1.5-1.1,1.3-2.3-1.4-1.5,2.1-.8-4.1C403.3,277.5,403.3,277.4,403.4,277.4Zm1.2,7.3-.4-2.2,1.5-2.1,1.8,1.1-2.9,3.2Zm7.3-1.2-6.4,1.2,3.6-4.1,2.7,1.5.2,1.2C412,283.4,412,283.4,411.9,283.5Z" fill="#ef5a4b"/>
      <path id="Path_153" data-name="Path 153" d="M408.9,278.9c.3-.1.6-.4.5-.7s-.4-.6-.7-.5-.6.4-.5.7C408.3,278.8,408.6,279,408.9,278.9Z" fill="#ef5a4b"/>
    </g>
    <path id="Path_154" data-name="Path 154" d="M424.9,270.9l1.6,3.1,3,1.7-3,1.7-1.6,3.1-1.7-3.1-2.9-1.7,2.9-1.7Z" fill="#ef5a4b"/>
    <path id="Path_155" data-name="Path 155" d="M431.5,283.1l.8,1.6,1.6.9-1.6.9-.8,1.6-.9-1.6-1.5-.9,1.5-.9Z" fill="#ef5a4b"/>
  </g>
</svg>
