<svg xmlns="http://www.w3.org/2000/svg" width="36.353" height="35.2" viewBox="0 0 36.353 35.2">
  <g id="Group_2" data-name="Group 2" transform="translate(-46.423 -194)">
    <path id="Path_3" data-name="Path 3" d="M76.3,214.3,74.6,216a.959.959,0,0,0-.3,1L76,227.1a1.12,1.12,0,0,1-1.6,1.2l-9.1-4.8a.908.908,0,0,0-1,0l-9.1,4.8a1.12,1.12,0,0,1-1.6-1.2L55.3,217a1.209,1.209,0,0,0-.3-1l-7.4-7.2a1.1,1.1,0,0,1,.6-1.9l10.2-1.5a1.037,1.037,0,0,0,.8-.6l4.5-9.2a1.133,1.133,0,0,1,2,0l4.5,9.2c.2.3.5.6.8.6l10.2,1.5a1.1,1.1,0,0,1,.6,1.9l-2.2,2.1" fill="#f8d3d1" opacity="0.49"/>
    <path id="Path_4" data-name="Path 4" d="M54.7,229.2a1.5,1.5,0,0,1-1.1-.4,1.918,1.918,0,0,1-.8-1.9l1.7-10.1a.367.367,0,0,0-.1-.3L47,209.3a2.083,2.083,0,0,1-.5-2A1.828,1.828,0,0,1,48,206l10.2-1.5a.215.215,0,0,0,.2-.2l4.5-9.2a1.864,1.864,0,0,1,3.4,0l4.5,9.2a.215.215,0,0,0,.2.2L81.2,206a1.828,1.828,0,0,1,1.5,1.3,2.145,2.145,0,0,1-.5,2L80,211.4a.778.778,0,1,1-1.1-1.1l2.2-2.1a.494.494,0,0,0,.1-.3c0-.1-.1-.2-.3-.2l-10.2-1.5a1.87,1.87,0,0,1-1.4-1L64.8,196c-.1-.2-.2-.2-.3-.2s-.2,0-.3.2l-4.5,9.2a1.611,1.611,0,0,1-1.4,1l-10.2,1.5c-.2,0-.2.1-.3.2a.367.367,0,0,0,.1.3l7.4,7.2a1.832,1.832,0,0,1,.6,1.7l-1.7,10.1a.438.438,0,0,0,.1.3c.1,0,.2.1.3,0l9.1-4.8a1.912,1.912,0,0,1,1.8,0l9.1,4.8c.2.1.3,0,.3,0a.219.219,0,0,0,.1-.3l-1.7-10.1a1.832,1.832,0,0,1,.6-1.7l1.7-1.7a.778.778,0,1,1,1.1,1.1L75,216.5a.367.367,0,0,0-.1.3l1.7,10.1a2.094,2.094,0,0,1-.8,1.9,1.822,1.822,0,0,1-2,.1l-9.1-4.8h-.3l-9.1,4.8C55.3,229.1,55,229.2,54.7,229.2Z" fill="#ee4127"/>
    <path id="Path_5" data-name="Path 5" d="M61.8,219.5a1.613,1.613,0,0,1-.9-.3,1.344,1.344,0,0,1-.6-1.4l.5-2.9-2.1-2.1a1.439,1.439,0,0,1-.4-1.5,1.549,1.549,0,0,1,1.2-1l2.9-.4,1.3-2.6a1.561,1.561,0,0,1,1.3-.8,1.34,1.34,0,0,1,1.3.8h0l1.3,2.6,2.9.4a1.549,1.549,0,0,1,1.2,1,1.439,1.439,0,0,1-.4,1.5l-2.1,2,.5,2.9a1.28,1.28,0,0,1-.6,1.4,1.542,1.542,0,0,1-1.6.1l-2.6-1.4-2.6,1.4A.55.55,0,0,1,61.8,219.5Zm3.3-3a1.854,1.854,0,0,1,.7.2l2.6,1.4-.4-2.9a1.479,1.479,0,0,1,.4-1.3l2.1-2-2.9-.5a1.548,1.548,0,0,1-1.1-.8L65.2,208h0l-1.3,2.6a1.548,1.548,0,0,1-1.1.8l-2.9.4,2.1,2.1a1.479,1.479,0,0,1,.4,1.3l-.5,2.9,2.6-1.3C64.6,216.5,64.8,216.5,65.1,216.5Z" fill="#ee4127"/>
    <circle id="Ellipse_1" data-name="Ellipse 1" cx="0.9" cy="0.9" r="0.9" transform="translate(63.7 202)" fill="#ec6f5e"/>
    <path id="Path_6" data-name="Path 6" d="M75.5,210.4a.9.9,0,1,1-.9-.9A.9.9,0,0,1,75.5,210.4Z" fill="#ec6f5e"/>
    <circle id="Ellipse_2" data-name="Ellipse 2" cx="0.9" cy="0.9" r="0.9" transform="translate(70.6 222)" fill="#ec6f5e"/>
    <circle id="Ellipse_3" data-name="Ellipse 3" cx="0.9" cy="0.9" r="0.9" transform="translate(56.9 221.2)" fill="#ec6f5e"/>
    <path id="Path_7" data-name="Path 7" d="M54.9,209.7a.9.9,0,1,1-.9-.9A.9.9,0,0,1,54.9,209.7Z" fill="#ec6f5e"/>
  </g>
</svg>
