<svg xmlns="http://www.w3.org/2000/svg" width="10.564" height="7.9" viewBox="0 0 10.564 7.9">
  <g id="Group_8" data-name="Group 8" transform="translate(-178.661 -105.1)">
    <path id="Path_28" data-name="Path 28" d="M189,110a.529.529,0,0,0-.8.1l-.7.8V106a.56.56,0,0,0-.5-.6h0a.472.472,0,0,0-.5.5V111l-.8-.9a.566.566,0,1,0-.8.8l1.7,1.9a.758.758,0,0,0,.4.2h0a.52.52,0,0,0,.4-.2l1.6-2A.468.468,0,0,0,189,110Z" fill="#4a4e59"/>
    <path id="Path_29" data-name="Path 29" d="M181.2,105.3a.5.5,0,0,0-.8,0l-1.6,2a.529.529,0,0,0,.1.8c.1.1.2.1.4.1a.52.52,0,0,0,.4-.2l.7-.8v5c0,.3.3.5.5.6a.472.472,0,0,0,.5-.5v-5.2l.8.9a.566.566,0,0,0,.8-.8Z" fill="#4a4e59"/>
  </g>
</svg>
