<svg xmlns="http://www.w3.org/2000/svg" width="10.8" height="16.4" viewBox="0 0 10.8 16.4">
  <g id="Group_21" data-name="Group 21" transform="translate(-268.4 -57.1)">
    <path id="Path_67" data-name="Path 67" d="M274,63.3a3.1,3.1,0,0,1-3-3.1,2.954,2.954,0,1,1,3,3.1Zm0-4.7a1.7,1.7,0,0,0,0,3.4,1.586,1.586,0,0,0,1.5-1.7A1.655,1.655,0,0,0,274,58.6Z" fill="#8694b2"/>
    <path id="Path_68" data-name="Path 68" d="M274.7,73.5h-2c-1,0-1.8-.4-1.8-1l-1-3.2c-.9-.1-1.5-.5-1.5-1.1V64.8c0-.7.7-1.1,1.9-1.1h1.8a.764.764,0,0,1,.5.2,2.233,2.233,0,0,0,1.2.2,4.36,4.36,0,0,0,1.2-.2c.1-.2.3-.2.5-.2h1.8c1.1,0,1.9.4,1.9,1.1v3.4c0,.6-.6,1-1.7,1.1l-.9,3.2C276.5,73.1,275.8,73.5,274.7,73.5ZM272.2,72a4.331,4.331,0,0,0,.5.1h2a.749.749,0,0,0,.5-.1l1-3.7a.752.752,0,0,1,.7-.5h.9V65.1h-2a3.677,3.677,0,0,1-2,.5,3.939,3.939,0,0,1-2-.5h-2v2.7h.6a.752.752,0,0,1,.7.5Zm5.7-6.8Z" fill="#8694b2"/>
  </g>
</svg>
