<svg xmlns="http://www.w3.org/2000/svg" width="79.9" height="52.3" viewBox="0 0 79.9 52.3">
  <g id="Group_23" data-name="Group 23" transform="translate(-48.5 -273.1)">
    <path id="Path_73" data-name="Path 73" d="M115.8,310.4h-9s-8.3,6.1-8.3,7.6v7.3h25.8V318C124.1,316.5,115.8,310.4,115.8,310.4Z" fill="#c7e2f9"/>
    <path id="Path_74" data-name="Path 74" d="M114.9,310.4v-5.5h-7.4v5.8a3.721,3.721,0,0,0,1.3,2.8,1.421,1.421,0,0,0-.2.6c0,.8,1.2,1.4,2.7,1.4s2.7-.6,2.7-1.4a.755.755,0,0,0-.4-.7A4.821,4.821,0,0,0,114.9,310.4Z" fill="#ddc8c3"/>
    <path id="Path_75" data-name="Path 75" d="M65.8,310.4h-9s-8.3,6.1-8.3,7.6v7.3H74.3V318C74.1,316.5,65.8,310.4,65.8,310.4Z" fill="#c7e2f9"/>
    <path id="Path_76" data-name="Path 76" d="M57.4,307.4v3.3a3.646,3.646,0,0,0,1.5,2.9.864.864,0,0,0-.3.6c0,.8,1.2,1.4,2.7,1.4s2.7-.6,2.7-1.4a.755.755,0,0,0-.4-.7,3.973,3.973,0,0,0,1.6-3.1v-3H57.4Z" fill="#ddc8c3"/>
    <path id="Path_77" data-name="Path 77" d="M55.6,296.5s1.1,8.9-3.9,9.7a30.109,30.109,0,0,0,7.6,1.7c2.8.3,11.5-1.2,11.5-1.2s-7-3.9-3.4-10" fill="#2e6289"/>
    <path id="Path_78" data-name="Path 78" d="M104.7,297.4s2.2,8.9-2.8,9.7a30.109,30.109,0,0,0,7.6,1.7c2.8.3,11.5-1.2,11.5-1.2s-7-3.9-3.4-10" fill="#ef5a4b"/>
    <path id="Path_79" data-name="Path 79" d="M65.8,310.4l3,2.3-4.5,3.8-3-3.8-3,3.8-4.5-3.8,3-2.3C56.7,310.4,62,315,65.8,310.4Z" fill="#fff"/>
    <ellipse id="Ellipse_5" data-name="Ellipse 5" cx="1.1" cy="2.3" rx="1.1" ry="2.3" transform="translate(53.7 299.8)" fill="#efd5ce"/>
    <ellipse id="Ellipse_6" data-name="Ellipse 6" cx="1.1" cy="2.3" rx="1.1" ry="2.3" transform="translate(66.6 299.8)" fill="#efd5ce"/>
    <ellipse id="Ellipse_7" data-name="Ellipse 7" cx="6.8" cy="8" rx="6.8" ry="8" transform="translate(54.5 293.7)" fill="#efd5ce"/>
    <path id="Path_80" data-name="Path 80" d="M65.4,302.9h-.8a.8.8,0,0,0-1.6,0h-.8a1.538,1.538,0,0,1,1.5-1.5A1.478,1.478,0,0,1,65.4,302.9Z" fill="#f06c5d"/>
    <path id="Path_81" data-name="Path 81" d="M60.1,302.9h-.8a.8.8,0,0,0-1.6,0h-.8a1.538,1.538,0,0,1,1.5-1.5A1.649,1.649,0,0,1,60.1,302.9Z" fill="#f06c5d"/>
    <path id="Path_82" data-name="Path 82" d="M67.3,288.4c-1.5,1.5-4.4.8-8.7.8a1.7,1.7,0,0,0-.7.1c-7.1,2.5-3.4,11.3-3.4,11.3a.1.1,0,0,0,.1-.1,8.112,8.112,0,0,1,2.8-5.3A10.731,10.731,0,0,1,68,300.4v.1l.1.1C68.8,298.3,68.8,286.9,67.3,288.4Z" fill="#2e6289"/>
    <path id="Path_83" data-name="Path 83" d="M117.7,299.8a.367.367,0,0,0-.3.1c-.6-3.5-3.1-6.1-6-6.1-3,0-5.5,2.7-6,6.4a.864.864,0,0,0-.6-.3c-.6,0-1.1,1-1.1,2.3s.5,2.3,1.1,2.3c.3,0,.5-.2.7-.5.9,3.4,3.6,5.8,5.9,5.8,2.2,0,4.9-2.3,5.8-5.5a.764.764,0,0,0,.5.2c.6,0,1.1-1,1.1-2.3C118.8,300.8,118.3,299.8,117.7,299.8Z" fill="#efd5ce"/>
    <path id="Path_84" data-name="Path 84" d="M115.4,302.9h-.8a.8.8,0,0,0-1.6,0h-.8a1.538,1.538,0,0,1,1.5-1.5A1.649,1.649,0,0,1,115.4,302.9Z" fill="#f06c5d"/>
    <path id="Path_85" data-name="Path 85" d="M110.1,302.9h-.8a.8.8,0,0,0-1.6,0h-.8a1.538,1.538,0,0,1,1.5-1.5A1.649,1.649,0,0,1,110.1,302.9Z" fill="#f06c5d"/>
    <path id="Path_86" data-name="Path 86" d="M93.4,307.2h-12s-11,7.6-11,9.5v8.6h34v-8.6C104.4,314.8,93.4,307.2,93.4,307.2Z" fill="#09a8d3"/>
    <path id="Path_87" data-name="Path 87" d="M87.2,311.5h0a4.8,4.8,0,0,1-4.8-4.8V303h10v3.3A5.228,5.228,0,0,1,87.2,311.5Z" fill="#ddc8c3"/>
    <path id="Path_88" data-name="Path 88" d="M93.4,306.3l4,3-6,5-4-5-4,5-6-5,4-3S88.4,312.3,93.4,306.3Z" fill="#fff"/>
    <path id="Path_89" data-name="Path 89" d="M96.1,292.4c-.9-4.6-4.5-8-8.7-8s-7.8,3.4-8.7,8c-.7.2-1.3,1.5-1.3,3,0,1.7.7,3,1.5,3H79c1.5,4.1,5.2,7,8.4,7s6.9-2.9,8.4-7h.1c.8,0,1.5-1.3,1.5-3C97.4,293.8,96.8,292.6,96.1,292.4Z" fill="#efd5ce"/>
    <path id="Path_90" data-name="Path 90" d="M92.7,296.3H92a1.1,1.1,0,1,0-2.2,0H89a1.9,1.9,0,0,1,1.9-1.9A1.815,1.815,0,0,1,92.7,296.3Z" fill="#f06c5d"/>
    <path id="Path_91" data-name="Path 91" d="M85.7,296.3H85a1.1,1.1,0,1,0-2.2,0H82a1.9,1.9,0,0,1,1.9-1.9A1.815,1.815,0,0,1,85.7,296.3Z" fill="#f06c5d"/>
    <path id="Path_92" data-name="Path 92" d="M95.4,279.6c-3.2,3.6-5.8.9-11.5.9a3.4,3.4,0,0,0-1,.1c-9.4,2.8-4.5,12.7-4.5,12.7a.1.1,0,0,0,.1-.1,10.8,10.8,0,0,1,3.8-7c2.5-.2,9.9-.3,14,6.9v.1l.1.1C97.4,290.7,97.1,277.6,95.4,279.6Z" fill="#2e6289"/>
    <path id="Path_93" data-name="Path 93" d="M90.4,325.3l-1.9-10.4,1.7-2.2-2.9-3.5-2.6,3.5,1.1,1.5.3.5-2,10.7Z" fill="#2e6289"/>
    <path id="Path_94" data-name="Path 94" d="M117.9,299h0c0-.4.1-.8.1-1.1a6.811,6.811,0,1,0-13.6,0,4.1,4.1,0,0,0,.1,1.1v.1a1.75,1.75,0,0,0,.1.5,5.782,5.782,0,0,0,.5,1.4c.3.8.5,1.5.4,1a11.6,11.6,0,0,1,.6-3.2c.5-.5,4.4-3.6,9.5-.1a5.471,5.471,0,0,1,1.1,1,6.154,6.154,0,0,1,.3,1.8v.5c-.1.6.3-.6.6-1.7.1-.2.1-.4.2-.6A2.442,2.442,0,0,1,117.9,299Zm-9-4.5a4.618,4.618,0,0,1,2.6-.7,4.013,4.013,0,0,1,1.5.3Z" fill="#ef5a4b"/>
    <circle id="Ellipse_8" data-name="Ellipse 8" cx="0.4" cy="0.4" r="0.4" transform="translate(60.7 316.9)" fill="#2e6289"/>
    <circle id="Ellipse_9" data-name="Ellipse 9" cx="0.4" cy="0.4" r="0.4" transform="translate(60.7 319.9)" fill="#2e6289"/>
    <circle id="Ellipse_10" data-name="Ellipse 10" cx="0.4" cy="0.4" r="0.4" transform="translate(110.7 316.9)" fill="#2e6289"/>
    <circle id="Ellipse_11" data-name="Ellipse 11" cx="0.4" cy="0.4" r="0.4" transform="translate(110.7 319.9)" fill="#2e6289"/>
    <path id="Path_95" data-name="Path 95" d="M115.8,310.4l3,2.3-4.5,3.8-3-3.8-3,3.8-4.5-3.8,3-2.3C106.7,310.4,112,315,115.8,310.4Z" fill="#fff"/>
    <path id="Path_96" data-name="Path 96" d="M116.6,297.2a9.2,9.2,0,0,0-5.3-2.8,5.385,5.385,0,0,0-2.8.5,8.319,8.319,0,0,0-2.5,1.8,5.65,5.65,0,0,1,2.2-2.4,5.255,5.255,0,0,1,3.3-.8,5.96,5.96,0,0,1,3.2,1.2A6.917,6.917,0,0,1,116.6,297.2Z" fill="#eaa26c"/>
    <path id="Path_97" data-name="Path 97" d="M119.2,273.1l1.6,3.2,3.1,1.7-3.1,1.7-1.6,3.2-1.7-3.2-3-1.7,3-1.7Z" fill="#ef5a4b"/>
    <path id="Path_98" data-name="Path 98" d="M126,285.6l.8,1.6,1.6.9-1.6,1-.8,1.6-.9-1.6-1.6-1,1.6-.9Z" fill="#ef5a4b"/>
  </g>
</svg>
